<svg width="333" height="7" viewBox="0 0 333 7" fill="none" xmlns="http://www.w3.org/2000/svg">
<line x1="319.256" y1="6.42676" x2="319.256" y2="0.895094" stroke="#9EA7AC" stroke-opacity="0.15"/>
<line x1="332.5" y1="6.42676" x2="332.5" y2="0.895094" stroke="#9EA7AC" stroke-opacity="0.15"/>
<line x1="329.902" y1="6.42676" x2="329.902" y2="2.81915" stroke="#9EA7AC" stroke-opacity="0.15"/>
<line x1="327.307" y1="6.42676" x2="327.307" y2="3.30017" stroke="#9EA7AC" stroke-opacity="0.15"/>
<line x1="324.709" y1="6.42676" x2="324.709" y2="3.30017" stroke="#9EA7AC" stroke-opacity="0.15"/>
<line x1="322.113" y1="6.42676" x2="322.113" y2="3.30017" stroke="#9EA7AC" stroke-opacity="0.15"/>
<line x1="306.011" y1="6.42676" x2="306.011" y2="0.895094" stroke="#9EA7AC" stroke-opacity="0.15"/>
<line x1="319.255" y1="6.42676" x2="319.255" y2="0.895094" stroke="#9EA7AC" stroke-opacity="0.15"/>
<line x1="316.658" y1="6.42676" x2="316.658" y2="2.81915" stroke="#9EA7AC" stroke-opacity="0.15"/>
<line x1="314.062" y1="6.42676" x2="314.062" y2="3.30017" stroke="#9EA7AC" stroke-opacity="0.15"/>
<line x1="311.464" y1="6.42676" x2="311.464" y2="3.30017" stroke="#9EA7AC" stroke-opacity="0.15"/>
<line x1="308.869" y1="6.42676" x2="308.869" y2="3.30017" stroke="#9EA7AC" stroke-opacity="0.15"/>
<line x1="292.767" y1="6.42676" x2="292.767" y2="0.895094" stroke="#9EA7AC" stroke-opacity="0.15"/>
<line x1="306.011" y1="6.42676" x2="306.011" y2="0.895094" stroke="#9EA7AC" stroke-opacity="0.15"/>
<line x1="303.414" y1="6.42676" x2="303.414" y2="2.81915" stroke="#9EA7AC" stroke-opacity="0.15"/>
<line x1="300.818" y1="6.42676" x2="300.818" y2="3.30017" stroke="#9EA7AC" stroke-opacity="0.15"/>
<line x1="298.22" y1="6.42676" x2="298.22" y2="3.30017" stroke="#9EA7AC" stroke-opacity="0.15"/>
<line x1="295.625" y1="6.42676" x2="295.625" y2="3.30017" stroke="#9EA7AC" stroke-opacity="0.15"/>
<line x1="279.523" y1="6.42676" x2="279.523" y2="0.895094" stroke="#9EA7AC" stroke-opacity="0.15"/>
<line x1="292.767" y1="6.42676" x2="292.767" y2="0.895094" stroke="#9EA7AC" stroke-opacity="0.15"/>
<line x1="290.169" y1="6.42676" x2="290.169" y2="2.81915" stroke="#9EA7AC" stroke-opacity="0.15"/>
<line x1="287.574" y1="6.42676" x2="287.574" y2="3.30017" stroke="#9EA7AC" stroke-opacity="0.15"/>
<line x1="284.976" y1="6.42676" x2="284.976" y2="3.30017" stroke="#9EA7AC" stroke-opacity="0.15"/>
<line x1="282.38" y1="6.42676" x2="282.38" y2="3.30017" stroke="#9EA7AC" stroke-opacity="0.15"/>
<line x1="266.279" y1="6.42676" x2="266.279" y2="0.895094" stroke="#9EA7AC" stroke-opacity="0.15"/>
<line x1="279.523" y1="6.42676" x2="279.523" y2="0.895094" stroke="#9EA7AC" stroke-opacity="0.15"/>
<line x1="276.925" y1="6.42676" x2="276.925" y2="2.81915" stroke="#9EA7AC" stroke-opacity="0.15"/>
<line x1="274.33" y1="6.42676" x2="274.33" y2="3.30017" stroke="#9EA7AC" stroke-opacity="0.15"/>
<line x1="271.732" y1="6.42676" x2="271.732" y2="3.30017" stroke="#9EA7AC" stroke-opacity="0.15"/>
<line x1="269.136" y1="6.42676" x2="269.136" y2="3.30017" stroke="#9EA7AC" stroke-opacity="0.15"/>
<line x1="253.034" y1="6.42676" x2="253.034" y2="0.895094" stroke="#9EA7AC" stroke-opacity="0.15"/>
<line x1="266.278" y1="6.42676" x2="266.278" y2="0.895094" stroke="#9EA7AC" stroke-opacity="0.15"/>
<line x1="263.681" y1="6.42676" x2="263.681" y2="2.81915" stroke="#9EA7AC" stroke-opacity="0.15"/>
<line x1="261.085" y1="6.42676" x2="261.085" y2="3.30017" stroke="#9EA7AC" stroke-opacity="0.15"/>
<line x1="258.487" y1="6.42676" x2="258.487" y2="3.30017" stroke="#9EA7AC" stroke-opacity="0.15"/>
<line x1="255.892" y1="6.42676" x2="255.892" y2="3.30017" stroke="#9EA7AC" stroke-opacity="0.15"/>
<line x1="239.79" y1="6.42676" x2="239.79" y2="0.895094" stroke="#9EA7AC" stroke-opacity="0.15"/>
<line x1="253.034" y1="6.42676" x2="253.034" y2="0.895094" stroke="#9EA7AC" stroke-opacity="0.15"/>
<line x1="250.437" y1="6.42676" x2="250.437" y2="2.81915" stroke="#9EA7AC" stroke-opacity="0.15"/>
<line x1="247.841" y1="6.42676" x2="247.841" y2="3.30017" stroke="#9EA7AC" stroke-opacity="0.15"/>
<line x1="245.243" y1="6.42676" x2="245.243" y2="3.30017" stroke="#9EA7AC" stroke-opacity="0.15"/>
<line x1="242.647" y1="6.42676" x2="242.647" y2="3.30017" stroke="#9EA7AC" stroke-opacity="0.15"/>
<line x1="226.546" y1="6.42676" x2="226.546" y2="0.895094" stroke="#9EA7AC" stroke-opacity="0.15"/>
<line x1="239.79" y1="6.42676" x2="239.79" y2="0.895094" stroke="#9EA7AC" stroke-opacity="0.15"/>
<line x1="237.192" y1="6.42676" x2="237.192" y2="2.81915" stroke="#9EA7AC" stroke-opacity="0.15"/>
<line x1="234.597" y1="6.42676" x2="234.597" y2="3.30017" stroke="#9EA7AC" stroke-opacity="0.15"/>
<line x1="231.999" y1="6.42676" x2="231.999" y2="3.30017" stroke="#9EA7AC" stroke-opacity="0.15"/>
<line x1="229.403" y1="6.42676" x2="229.403" y2="3.30017" stroke="#9EA7AC" stroke-opacity="0.15"/>
<line x1="213.302" y1="6.42676" x2="213.302" y2="0.895094" stroke="#9EA7AC" stroke-opacity="0.15"/>
<line x1="226.546" y1="6.42676" x2="226.546" y2="0.895094" stroke="#9EA7AC" stroke-opacity="0.15"/>
<line x1="223.948" y1="6.42676" x2="223.948" y2="2.81915" stroke="#9EA7AC" stroke-opacity="0.15"/>
<line x1="221.353" y1="6.42676" x2="221.353" y2="3.30017" stroke="#9EA7AC" stroke-opacity="0.15"/>
<line x1="218.755" y1="6.42676" x2="218.755" y2="3.30017" stroke="#9EA7AC" stroke-opacity="0.15"/>
<line x1="216.159" y1="6.42676" x2="216.159" y2="3.30017" stroke="#9EA7AC" stroke-opacity="0.15"/>
<line x1="200.057" y1="6.42676" x2="200.057" y2="0.895094" stroke="#9EA7AC" stroke-opacity="0.15"/>
<line x1="213.301" y1="6.42676" x2="213.301" y2="0.895094" stroke="#9EA7AC" stroke-opacity="0.15"/>
<line x1="210.704" y1="6.42676" x2="210.704" y2="2.81915" stroke="#9EA7AC" stroke-opacity="0.15"/>
<line x1="208.108" y1="6.42676" x2="208.108" y2="3.30017" stroke="#9EA7AC" stroke-opacity="0.15"/>
<line x1="205.51" y1="6.42676" x2="205.51" y2="3.30017" stroke="#9EA7AC" stroke-opacity="0.15"/>
<line x1="202.915" y1="6.42676" x2="202.915" y2="3.30017" stroke="#9EA7AC" stroke-opacity="0.15"/>
<line x1="186.813" y1="6.42676" x2="186.813" y2="0.895094" stroke="#9EA7AC" stroke-opacity="0.15"/>
<line x1="200.057" y1="6.42676" x2="200.057" y2="0.895094" stroke="#9EA7AC" stroke-opacity="0.15"/>
<line x1="197.459" y1="6.42676" x2="197.459" y2="2.81915" stroke="#9EA7AC" stroke-opacity="0.15"/>
<line x1="194.864" y1="6.42676" x2="194.864" y2="3.30017" stroke="#9EA7AC" stroke-opacity="0.15"/>
<line x1="192.266" y1="6.42676" x2="192.266" y2="3.30017" stroke="#9EA7AC" stroke-opacity="0.15"/>
<line x1="189.67" y1="6.42676" x2="189.67" y2="3.30017" stroke="#9EA7AC" stroke-opacity="0.15"/>
<line x1="173.569" y1="6.42676" x2="173.569" y2="0.895094" stroke="#9EA7AC" stroke-opacity="0.15"/>
<line x1="186.813" y1="6.42676" x2="186.813" y2="0.895094" stroke="#9EA7AC" stroke-opacity="0.15"/>
<line x1="184.215" y1="6.42676" x2="184.215" y2="2.81915" stroke="#9EA7AC" stroke-opacity="0.15"/>
<line x1="181.62" y1="6.42676" x2="181.62" y2="3.30017" stroke="#9EA7AC" stroke-opacity="0.15"/>
<line x1="179.022" y1="6.42676" x2="179.022" y2="3.30017" stroke="#9EA7AC" stroke-opacity="0.15"/>
<line x1="176.426" y1="6.42676" x2="176.426" y2="3.30017" stroke="#9EA7AC" stroke-opacity="0.15"/>
<line x1="160.325" y1="6.42676" x2="160.325" y2="0.895094" stroke="#9EA7AC" stroke-opacity="0.15"/>
<line x1="173.569" y1="6.42676" x2="173.569" y2="0.895094" stroke="#9EA7AC" stroke-opacity="0.15"/>
<line x1="170.971" y1="6.42676" x2="170.971" y2="2.81915" stroke="#9EA7AC" stroke-opacity="0.15"/>
<line x1="168.375" y1="6.42676" x2="168.375" y2="3.30017" stroke="#9EA7AC" stroke-opacity="0.15"/>
<line x1="165.778" y1="6.42676" x2="165.778" y2="3.30017" stroke="#9EA7AC" stroke-opacity="0.15"/>
<line x1="163.182" y1="6.42676" x2="163.182" y2="3.30017" stroke="#9EA7AC" stroke-opacity="0.15"/>
<line x1="147.08" y1="6.42676" x2="147.08" y2="0.895094" stroke="#9EA7AC" stroke-opacity="0.15"/>
<line x1="160.324" y1="6.42676" x2="160.324" y2="0.895094" stroke="#9EA7AC" stroke-opacity="0.15"/>
<line x1="157.727" y1="6.42676" x2="157.727" y2="2.81915" stroke="#9EA7AC" stroke-opacity="0.15"/>
<line x1="155.131" y1="6.42676" x2="155.131" y2="3.30017" stroke="#9EA7AC" stroke-opacity="0.15"/>
<line x1="152.533" y1="6.42676" x2="152.533" y2="3.30017" stroke="#9EA7AC" stroke-opacity="0.15"/>
<line x1="149.938" y1="6.42676" x2="149.938" y2="3.30017" stroke="#9EA7AC" stroke-opacity="0.15"/>
<line x1="133.836" y1="6.42676" x2="133.836" y2="0.895094" stroke="#9EA7AC" stroke-opacity="0.15"/>
<line x1="147.08" y1="6.42676" x2="147.08" y2="0.895094" stroke="#9EA7AC" stroke-opacity="0.15"/>
<line x1="144.482" y1="6.42676" x2="144.482" y2="2.81915" stroke="#9EA7AC" stroke-opacity="0.15"/>
<line x1="141.887" y1="6.42676" x2="141.887" y2="3.30017" stroke="#9EA7AC" stroke-opacity="0.15"/>
<line x1="139.289" y1="6.42676" x2="139.289" y2="3.30017" stroke="#9EA7AC" stroke-opacity="0.15"/>
<line x1="136.693" y1="6.42676" x2="136.693" y2="3.30017" stroke="#9EA7AC" stroke-opacity="0.15"/>
<line x1="120.592" y1="6.42676" x2="120.592" y2="0.895094" stroke="#9EA7AC" stroke-opacity="0.15"/>
<line x1="133.836" y1="6.42676" x2="133.836" y2="0.895094" stroke="#9EA7AC" stroke-opacity="0.15"/>
<line x1="131.238" y1="6.42676" x2="131.238" y2="2.81915" stroke="#9EA7AC" stroke-opacity="0.15"/>
<line x1="128.643" y1="6.42676" x2="128.643" y2="3.30017" stroke="#9EA7AC" stroke-opacity="0.15"/>
<line x1="126.045" y1="6.42676" x2="126.045" y2="3.30017" stroke="#9EA7AC" stroke-opacity="0.15"/>
<line x1="123.449" y1="6.42676" x2="123.449" y2="3.30017" stroke="#9EA7AC" stroke-opacity="0.15"/>
<line x1="107.348" y1="6.42676" x2="107.348" y2="0.895094" stroke="#9EA7AC" stroke-opacity="0.15"/>
<line x1="120.592" y1="6.42676" x2="120.592" y2="0.895094" stroke="#9EA7AC" stroke-opacity="0.15"/>
<line x1="117.994" y1="6.42676" x2="117.994" y2="2.81915" stroke="#9EA7AC" stroke-opacity="0.15"/>
<line x1="115.398" y1="6.42676" x2="115.398" y2="3.30017" stroke="#9EA7AC" stroke-opacity="0.15"/>
<line x1="112.801" y1="6.42676" x2="112.801" y2="3.30017" stroke="#9EA7AC" stroke-opacity="0.15"/>
<line x1="110.205" y1="6.42676" x2="110.205" y2="3.30017" stroke="#9EA7AC" stroke-opacity="0.15"/>
<line x1="94.103" y1="6.42676" x2="94.103" y2="0.895094" stroke="#9EA7AC" stroke-opacity="0.15"/>
<line x1="107.347" y1="6.42676" x2="107.347" y2="0.895094" stroke="#9EA7AC" stroke-opacity="0.15"/>
<line x1="104.75" y1="6.42676" x2="104.75" y2="2.81915" stroke="#9EA7AC" stroke-opacity="0.15"/>
<line x1="102.154" y1="6.42676" x2="102.154" y2="3.30017" stroke="#9EA7AC" stroke-opacity="0.15"/>
<line x1="99.5562" y1="6.42676" x2="99.5562" y2="3.30017" stroke="#9EA7AC" stroke-opacity="0.15"/>
<line x1="96.9604" y1="6.42676" x2="96.9604" y2="3.30017" stroke="#9EA7AC" stroke-opacity="0.15"/>
<line x1="80.8589" y1="6.42676" x2="80.8589" y2="0.895094" stroke="#9EA7AC" stroke-opacity="0.15"/>
<line x1="94.103" y1="6.42676" x2="94.103" y2="0.895094" stroke="#9EA7AC" stroke-opacity="0.15"/>
<line x1="91.5054" y1="6.42676" x2="91.5054" y2="2.81915" stroke="#9EA7AC" stroke-opacity="0.15"/>
<line x1="88.9097" y1="6.42676" x2="88.9097" y2="3.30017" stroke="#9EA7AC" stroke-opacity="0.15"/>
<line x1="86.312" y1="6.42676" x2="86.312" y2="3.30017" stroke="#9EA7AC" stroke-opacity="0.15"/>
<line x1="83.7163" y1="6.42676" x2="83.7163" y2="3.30017" stroke="#9EA7AC" stroke-opacity="0.15"/>
<line x1="67.6147" y1="6.42676" x2="67.6147" y2="0.895094" stroke="#9EA7AC" stroke-opacity="0.15"/>
<line x1="80.8589" y1="6.42676" x2="80.8589" y2="0.895094" stroke="#9EA7AC" stroke-opacity="0.15"/>
<line x1="78.2612" y1="6.42676" x2="78.2612" y2="2.81915" stroke="#9EA7AC" stroke-opacity="0.15"/>
<line x1="75.6655" y1="6.42676" x2="75.6655" y2="3.30017" stroke="#9EA7AC" stroke-opacity="0.15"/>
<line x1="73.0679" y1="6.42676" x2="73.0679" y2="3.30017" stroke="#9EA7AC" stroke-opacity="0.15"/>
<line x1="70.4722" y1="6.42676" x2="70.4722" y2="3.30017" stroke="#9EA7AC" stroke-opacity="0.15"/>
<line x1="54.3706" y1="6.42676" x2="54.3706" y2="0.895094" stroke="#9EA7AC" stroke-opacity="0.15"/>
<line x1="67.6147" y1="6.42676" x2="67.6147" y2="0.895094" stroke="#9EA7AC" stroke-opacity="0.15"/>
<line x1="65.0171" y1="6.42676" x2="65.0171" y2="2.81915" stroke="#9EA7AC" stroke-opacity="0.15"/>
<line x1="62.4214" y1="6.42676" x2="62.4214" y2="3.30017" stroke="#9EA7AC" stroke-opacity="0.15"/>
<line x1="59.8237" y1="6.42676" x2="59.8237" y2="3.30017" stroke="#9EA7AC" stroke-opacity="0.15"/>
<line x1="57.228" y1="6.42676" x2="57.228" y2="3.30017" stroke="#9EA7AC" stroke-opacity="0.15"/>
<line x1="41.126" y1="6.42676" x2="41.126" y2="0.895094" stroke="#9EA7AC" stroke-opacity="0.15"/>
<line x1="54.3701" y1="6.42676" x2="54.3701" y2="0.895094" stroke="#9EA7AC" stroke-opacity="0.15"/>
<line x1="51.7725" y1="6.42676" x2="51.7725" y2="2.81915" stroke="#9EA7AC" stroke-opacity="0.15"/>
<line x1="49.1768" y1="6.42676" x2="49.1768" y2="3.30017" stroke="#9EA7AC" stroke-opacity="0.15"/>
<line x1="46.5791" y1="6.42676" x2="46.5791" y2="3.30017" stroke="#9EA7AC" stroke-opacity="0.15"/>
<line x1="43.9834" y1="6.42676" x2="43.9834" y2="3.30017" stroke="#9EA7AC" stroke-opacity="0.15"/>
<line x1="27.8818" y1="6.42676" x2="27.8818" y2="0.895094" stroke="#9EA7AC" stroke-opacity="0.15"/>
<line x1="41.126" y1="6.42676" x2="41.126" y2="0.895094" stroke="#9EA7AC" stroke-opacity="0.15"/>
<line x1="38.5283" y1="6.42676" x2="38.5283" y2="2.81915" stroke="#9EA7AC" stroke-opacity="0.15"/>
<line x1="35.9326" y1="6.42676" x2="35.9326" y2="3.30017" stroke="#9EA7AC" stroke-opacity="0.15"/>
<line x1="33.335" y1="6.42676" x2="33.335" y2="3.30017" stroke="#9EA7AC" stroke-opacity="0.15"/>
<line x1="30.7393" y1="6.42676" x2="30.7393" y2="3.30017" stroke="#9EA7AC" stroke-opacity="0.15"/>
<line x1="14.6377" y1="6.42676" x2="14.6377" y2="0.895094" stroke="#9EA7AC" stroke-opacity="0.15"/>
<line x1="27.8818" y1="6.42676" x2="27.8818" y2="0.895094" stroke="#9EA7AC" stroke-opacity="0.15"/>
<line x1="25.2842" y1="6.42676" x2="25.2842" y2="2.81915" stroke="#9EA7AC" stroke-opacity="0.15"/>
<line x1="22.6885" y1="6.42676" x2="22.6885" y2="3.30017" stroke="#9EA7AC" stroke-opacity="0.15"/>
<line x1="20.0908" y1="6.42676" x2="20.0908" y2="3.30017" stroke="#9EA7AC" stroke-opacity="0.15"/>
<line x1="17.4951" y1="6.42676" x2="17.4951" y2="3.30017" stroke="#9EA7AC" stroke-opacity="0.15"/>
<line x1="1.39355" y1="6.42676" x2="1.39355" y2="0.895094" stroke="#9EA7AC" stroke-opacity="0.15"/>
<line x1="14.6377" y1="6.42676" x2="14.6377" y2="0.895094" stroke="#9EA7AC" stroke-opacity="0.15"/>
<line x1="12.04" y1="6.42676" x2="12.04" y2="2.81915" stroke="#9EA7AC" stroke-opacity="0.15"/>
<line x1="9.44434" y1="6.42676" x2="9.44434" y2="3.30017" stroke="#9EA7AC" stroke-opacity="0.15"/>
<line x1="6.84668" y1="6.42676" x2="6.84668" y2="3.30017" stroke="#9EA7AC" stroke-opacity="0.15"/>
<line x1="4.25098" y1="6.42676" x2="4.25098" y2="3.30017" stroke="#9EA7AC" stroke-opacity="0.15"/>
</svg>
