<svg width="16" height="17" viewBox="0 0 16 17" fill="none" xmlns="http://www.w3.org/2000/svg">
<path opacity="0.5" d="M6.3833 13.665C7.76953 13.665 9.04785 13.2168 10.0938 12.4697L14.0283 16.4043C14.2109 16.5869 14.4517 16.6782 14.709 16.6782C15.2485 16.6782 15.6304 16.2632 15.6304 15.7319C15.6304 15.4829 15.5474 15.2422 15.3647 15.0679L11.4551 11.1499C12.2769 10.0708 12.7666 8.73438 12.7666 7.28174C12.7666 3.77051 9.89453 0.898438 6.3833 0.898438C2.88037 0.898438 0 3.76221 0 7.28174C0 10.793 2.87207 13.665 6.3833 13.665ZM6.3833 12.2871C3.64404 12.2871 1.37793 10.021 1.37793 7.28174C1.37793 4.54248 3.64404 2.27637 6.3833 2.27637C9.12256 2.27637 11.3887 4.54248 11.3887 7.28174C11.3887 10.021 9.12256 12.2871 6.3833 12.2871Z" fill="#9EA7AC"/>
</svg>
