<svg width="52" height="51" viewBox="0 0 52 51" fill="none" xmlns="http://www.w3.org/2000/svg">
<g filter="url(#filter0_d_1642_14226)">
<circle cx="26" cy="21.2881" r="10" transform="rotate(180 26 21.2881)" fill="#0496FF"/>
<circle cx="26" cy="21.2881" r="12" transform="rotate(180 26 21.2881)" stroke="white" stroke-width="4"/>
</g>
<path d="M28.5 25.2881C28.2239 25.2881 28 25.0642 28 24.7881L28 17.7881C28 17.5119 28.2239 17.2881 28.5 17.2881C28.7761 17.2881 29 17.5119 29 17.7881L29 24.7881C29 25.0642 28.7761 25.2881 28.5 25.2881Z" fill="#FCFCFC"/>
<path d="M25.5 25.2881C25.2239 25.2881 25 25.0642 25 24.7881L25 17.7881C25 17.5119 25.2239 17.2881 25.5 17.2881C25.7761 17.2881 26 17.5119 26 17.7881L26 24.7881C26 25.0642 25.7761 25.2881 25.5 25.2881Z" fill="#FCFCFC"/>
<path d="M22 24.7881C22 25.0642 22.2239 25.2881 22.5 25.2881C22.7761 25.2881 23 25.0642 23 24.7881L23 17.7881C23 17.5119 22.7761 17.2881 22.5 17.2881C22.2239 17.2881 22 17.5119 22 17.7881L22 24.7881Z" fill="#FCFCFC"/>
<defs>
<filter id="filter0_d_1642_14226" x="0.838123" y="0.59096" width="50.3238" height="50.3238" filterUnits="userSpaceOnUse" color-interpolation-filters="sRGB">
<feFlood flood-opacity="0" result="BackgroundImageFix"/>
<feColorMatrix in="SourceAlpha" type="matrix" values="0 0 0 0 0 0 0 0 0 0 0 0 0 0 0 0 0 0 127 0" result="hardAlpha"/>
<feOffset dy="4.46475"/>
<feGaussianBlur stdDeviation="5.58094"/>
<feColorMatrix type="matrix" values="0 0 0 0 0 0 0 0 0 0 0 0 0 0 0 0 0 0 0.15 0"/>
<feBlend mode="normal" in2="BackgroundImageFix" result="effect1_dropShadow_1642_14226"/>
<feBlend mode="normal" in="SourceGraphic" in2="effect1_dropShadow_1642_14226" result="shape"/>
</filter>
</defs>
</svg>
