<svg width="333" height="7" viewBox="0 0 333 7" fill="none" xmlns="http://www.w3.org/2000/svg">
<line y1="-0.5" x2="5.53166" y2="-0.5" transform="matrix(-4.37114e-08 1 1 4.37114e-08 319.756 0.89502)" stroke="#9EA7AC" stroke-opacity="0.15"/>
<line y1="-0.5" x2="5.53166" y2="-0.5" transform="matrix(-4.37114e-08 1 1 4.37114e-08 333 0.89502)" stroke="#9EA7AC" stroke-opacity="0.15"/>
<line y1="-0.5" x2="3.60761" y2="-0.5" transform="matrix(-4.37114e-08 1 1 4.37114e-08 330.402 0.89502)" stroke="#9EA7AC" stroke-opacity="0.15"/>
<line y1="-0.5" x2="3.12659" y2="-0.5" transform="matrix(-4.37114e-08 1 1 4.37114e-08 327.807 0.89502)" stroke="#9EA7AC" stroke-opacity="0.15"/>
<line y1="-0.5" x2="3.12659" y2="-0.5" transform="matrix(-4.37114e-08 1 1 4.37114e-08 325.209 0.89502)" stroke="#9EA7AC" stroke-opacity="0.15"/>
<line y1="-0.5" x2="3.12659" y2="-0.5" transform="matrix(-4.37114e-08 1 1 4.37114e-08 322.613 0.89502)" stroke="#9EA7AC" stroke-opacity="0.15"/>
<line y1="-0.5" x2="5.53166" y2="-0.5" transform="matrix(-4.37114e-08 1 1 4.37114e-08 306.511 0.89502)" stroke="#9EA7AC" stroke-opacity="0.15"/>
<line y1="-0.5" x2="5.53166" y2="-0.5" transform="matrix(-4.37114e-08 1 1 4.37114e-08 319.755 0.89502)" stroke="#9EA7AC" stroke-opacity="0.15"/>
<line y1="-0.5" x2="3.60761" y2="-0.5" transform="matrix(-4.37114e-08 1 1 4.37114e-08 317.158 0.89502)" stroke="#9EA7AC" stroke-opacity="0.15"/>
<line y1="-0.5" x2="3.12659" y2="-0.5" transform="matrix(-4.37114e-08 1 1 4.37114e-08 314.562 0.89502)" stroke="#9EA7AC" stroke-opacity="0.15"/>
<line y1="-0.5" x2="3.12659" y2="-0.5" transform="matrix(-4.37114e-08 1 1 4.37114e-08 311.964 0.89502)" stroke="#9EA7AC" stroke-opacity="0.15"/>
<line y1="-0.5" x2="3.12659" y2="-0.5" transform="matrix(-4.37114e-08 1 1 4.37114e-08 309.369 0.89502)" stroke="#9EA7AC" stroke-opacity="0.15"/>
<line y1="-0.5" x2="5.53166" y2="-0.5" transform="matrix(-4.37114e-08 1 1 4.37114e-08 293.267 0.89502)" stroke="#9EA7AC" stroke-opacity="0.15"/>
<line y1="-0.5" x2="5.53166" y2="-0.5" transform="matrix(-4.37114e-08 1 1 4.37114e-08 306.511 0.89502)" stroke="#9EA7AC" stroke-opacity="0.15"/>
<line y1="-0.5" x2="3.60761" y2="-0.5" transform="matrix(-4.37114e-08 1 1 4.37114e-08 303.914 0.89502)" stroke="#9EA7AC" stroke-opacity="0.15"/>
<line y1="-0.5" x2="3.12659" y2="-0.5" transform="matrix(-4.37114e-08 1 1 4.37114e-08 301.318 0.89502)" stroke="#9EA7AC" stroke-opacity="0.15"/>
<line y1="-0.5" x2="3.12659" y2="-0.5" transform="matrix(-4.37114e-08 1 1 4.37114e-08 298.72 0.89502)" stroke="#9EA7AC" stroke-opacity="0.15"/>
<line y1="-0.5" x2="3.12659" y2="-0.5" transform="matrix(-4.37114e-08 1 1 4.37114e-08 296.125 0.89502)" stroke="#9EA7AC" stroke-opacity="0.15"/>
<line y1="-0.5" x2="5.53166" y2="-0.5" transform="matrix(-4.37114e-08 1 1 4.37114e-08 280.023 0.89502)" stroke="#9EA7AC" stroke-opacity="0.15"/>
<line y1="-0.5" x2="5.53166" y2="-0.5" transform="matrix(-4.37114e-08 1 1 4.37114e-08 293.267 0.89502)" stroke="#9EA7AC" stroke-opacity="0.15"/>
<line y1="-0.5" x2="3.60761" y2="-0.5" transform="matrix(-4.37114e-08 1 1 4.37114e-08 290.669 0.89502)" stroke="#9EA7AC" stroke-opacity="0.15"/>
<line y1="-0.5" x2="3.12659" y2="-0.5" transform="matrix(-4.37114e-08 1 1 4.37114e-08 288.074 0.89502)" stroke="#9EA7AC" stroke-opacity="0.15"/>
<line y1="-0.5" x2="3.12659" y2="-0.5" transform="matrix(-4.37114e-08 1 1 4.37114e-08 285.476 0.89502)" stroke="#9EA7AC" stroke-opacity="0.15"/>
<line y1="-0.5" x2="3.12659" y2="-0.5" transform="matrix(-4.37114e-08 1 1 4.37114e-08 282.88 0.89502)" stroke="#9EA7AC" stroke-opacity="0.15"/>
<line y1="-0.5" x2="5.53166" y2="-0.5" transform="matrix(-4.37114e-08 1 1 4.37114e-08 266.779 0.89502)" stroke="#9EA7AC" stroke-opacity="0.15"/>
<line y1="-0.5" x2="5.53166" y2="-0.5" transform="matrix(-4.37114e-08 1 1 4.37114e-08 280.023 0.89502)" stroke="#9EA7AC" stroke-opacity="0.15"/>
<line y1="-0.5" x2="3.60761" y2="-0.5" transform="matrix(-4.37114e-08 1 1 4.37114e-08 277.425 0.89502)" stroke="#9EA7AC" stroke-opacity="0.15"/>
<line y1="-0.5" x2="3.12659" y2="-0.5" transform="matrix(-4.37114e-08 1 1 4.37114e-08 274.83 0.89502)" stroke="#9EA7AC" stroke-opacity="0.15"/>
<line y1="-0.5" x2="3.12659" y2="-0.5" transform="matrix(-4.37114e-08 1 1 4.37114e-08 272.232 0.89502)" stroke="#9EA7AC" stroke-opacity="0.15"/>
<line y1="-0.5" x2="3.12659" y2="-0.5" transform="matrix(-4.37114e-08 1 1 4.37114e-08 269.636 0.89502)" stroke="#9EA7AC" stroke-opacity="0.15"/>
<line y1="-0.5" x2="5.53166" y2="-0.5" transform="matrix(-4.37114e-08 1 1 4.37114e-08 253.534 0.89502)" stroke="#9EA7AC" stroke-opacity="0.15"/>
<line y1="-0.5" x2="5.53166" y2="-0.5" transform="matrix(-4.37114e-08 1 1 4.37114e-08 266.778 0.89502)" stroke="#9EA7AC" stroke-opacity="0.15"/>
<line y1="-0.5" x2="3.60761" y2="-0.5" transform="matrix(-4.37114e-08 1 1 4.37114e-08 264.181 0.89502)" stroke="#9EA7AC" stroke-opacity="0.15"/>
<line y1="-0.5" x2="3.12659" y2="-0.5" transform="matrix(-4.37114e-08 1 1 4.37114e-08 261.585 0.89502)" stroke="#9EA7AC" stroke-opacity="0.15"/>
<line y1="-0.5" x2="3.12659" y2="-0.5" transform="matrix(-4.37114e-08 1 1 4.37114e-08 258.987 0.89502)" stroke="#9EA7AC" stroke-opacity="0.15"/>
<line y1="-0.5" x2="3.12659" y2="-0.5" transform="matrix(-4.37114e-08 1 1 4.37114e-08 256.392 0.89502)" stroke="#9EA7AC" stroke-opacity="0.15"/>
<line y1="-0.5" x2="5.53166" y2="-0.5" transform="matrix(-4.37114e-08 1 1 4.37114e-08 240.29 0.89502)" stroke="#9EA7AC" stroke-opacity="0.15"/>
<line y1="-0.5" x2="5.53166" y2="-0.5" transform="matrix(-4.37114e-08 1 1 4.37114e-08 253.534 0.89502)" stroke="#9EA7AC" stroke-opacity="0.15"/>
<line y1="-0.5" x2="3.60761" y2="-0.5" transform="matrix(-4.37114e-08 1 1 4.37114e-08 250.937 0.89502)" stroke="#9EA7AC" stroke-opacity="0.15"/>
<line y1="-0.5" x2="3.12659" y2="-0.5" transform="matrix(-4.37114e-08 1 1 4.37114e-08 248.341 0.89502)" stroke="#9EA7AC" stroke-opacity="0.15"/>
<line y1="-0.5" x2="3.12659" y2="-0.5" transform="matrix(-4.37114e-08 1 1 4.37114e-08 245.743 0.89502)" stroke="#9EA7AC" stroke-opacity="0.15"/>
<line y1="-0.5" x2="3.12659" y2="-0.5" transform="matrix(-4.37114e-08 1 1 4.37114e-08 243.147 0.89502)" stroke="#9EA7AC" stroke-opacity="0.15"/>
<line y1="-0.5" x2="5.53166" y2="-0.5" transform="matrix(-4.37114e-08 1 1 4.37114e-08 227.046 0.89502)" stroke="#9EA7AC" stroke-opacity="0.15"/>
<line y1="-0.5" x2="5.53166" y2="-0.5" transform="matrix(-4.37114e-08 1 1 4.37114e-08 240.29 0.89502)" stroke="#9EA7AC" stroke-opacity="0.15"/>
<line y1="-0.5" x2="3.60761" y2="-0.5" transform="matrix(-4.37114e-08 1 1 4.37114e-08 237.692 0.89502)" stroke="#9EA7AC" stroke-opacity="0.15"/>
<line y1="-0.5" x2="3.12659" y2="-0.5" transform="matrix(-4.37114e-08 1 1 4.37114e-08 235.097 0.89502)" stroke="#9EA7AC" stroke-opacity="0.15"/>
<line y1="-0.5" x2="3.12659" y2="-0.5" transform="matrix(-4.37114e-08 1 1 4.37114e-08 232.499 0.89502)" stroke="#9EA7AC" stroke-opacity="0.15"/>
<line y1="-0.5" x2="3.12659" y2="-0.5" transform="matrix(-4.37114e-08 1 1 4.37114e-08 229.903 0.89502)" stroke="#9EA7AC" stroke-opacity="0.15"/>
<line y1="-0.5" x2="5.53166" y2="-0.5" transform="matrix(-4.37114e-08 1 1 4.37114e-08 213.802 0.89502)" stroke="#9EA7AC" stroke-opacity="0.15"/>
<line y1="-0.5" x2="5.53166" y2="-0.5" transform="matrix(-4.37114e-08 1 1 4.37114e-08 227.046 0.89502)" stroke="#9EA7AC" stroke-opacity="0.15"/>
<line y1="-0.5" x2="3.60761" y2="-0.5" transform="matrix(-4.37114e-08 1 1 4.37114e-08 224.448 0.89502)" stroke="#9EA7AC" stroke-opacity="0.15"/>
<line y1="-0.5" x2="3.12659" y2="-0.5" transform="matrix(-4.37114e-08 1 1 4.37114e-08 221.853 0.89502)" stroke="#9EA7AC" stroke-opacity="0.15"/>
<line y1="-0.5" x2="3.12659" y2="-0.5" transform="matrix(-4.37114e-08 1 1 4.37114e-08 219.255 0.89502)" stroke="#9EA7AC" stroke-opacity="0.15"/>
<line y1="-0.5" x2="3.12659" y2="-0.5" transform="matrix(-4.37114e-08 1 1 4.37114e-08 216.659 0.89502)" stroke="#9EA7AC" stroke-opacity="0.15"/>
<line y1="-0.5" x2="5.53166" y2="-0.5" transform="matrix(-4.37114e-08 1 1 4.37114e-08 200.557 0.89502)" stroke="#9EA7AC" stroke-opacity="0.15"/>
<line y1="-0.5" x2="5.53166" y2="-0.5" transform="matrix(-4.37114e-08 1 1 4.37114e-08 213.801 0.89502)" stroke="#9EA7AC" stroke-opacity="0.15"/>
<line y1="-0.5" x2="3.60761" y2="-0.5" transform="matrix(-4.37114e-08 1 1 4.37114e-08 211.204 0.89502)" stroke="#9EA7AC" stroke-opacity="0.15"/>
<line y1="-0.5" x2="3.12659" y2="-0.5" transform="matrix(-4.37114e-08 1 1 4.37114e-08 208.608 0.89502)" stroke="#9EA7AC" stroke-opacity="0.15"/>
<line y1="-0.5" x2="3.12659" y2="-0.5" transform="matrix(-4.37114e-08 1 1 4.37114e-08 206.01 0.89502)" stroke="#9EA7AC" stroke-opacity="0.15"/>
<line y1="-0.5" x2="3.12659" y2="-0.5" transform="matrix(-4.37114e-08 1 1 4.37114e-08 203.415 0.89502)" stroke="#9EA7AC" stroke-opacity="0.15"/>
<line y1="-0.5" x2="5.53166" y2="-0.5" transform="matrix(-4.37114e-08 1 1 4.37114e-08 187.313 0.89502)" stroke="#9EA7AC" stroke-opacity="0.15"/>
<line y1="-0.5" x2="5.53166" y2="-0.5" transform="matrix(-4.37114e-08 1 1 4.37114e-08 200.557 0.89502)" stroke="#9EA7AC" stroke-opacity="0.15"/>
<line y1="-0.5" x2="3.60761" y2="-0.5" transform="matrix(-4.37114e-08 1 1 4.37114e-08 197.959 0.89502)" stroke="#9EA7AC" stroke-opacity="0.15"/>
<line y1="-0.5" x2="3.12659" y2="-0.5" transform="matrix(-4.37114e-08 1 1 4.37114e-08 195.364 0.89502)" stroke="#9EA7AC" stroke-opacity="0.15"/>
<line y1="-0.5" x2="3.12659" y2="-0.5" transform="matrix(-4.37114e-08 1 1 4.37114e-08 192.766 0.89502)" stroke="#9EA7AC" stroke-opacity="0.15"/>
<line y1="-0.5" x2="3.12659" y2="-0.5" transform="matrix(-4.37114e-08 1 1 4.37114e-08 190.17 0.89502)" stroke="#9EA7AC" stroke-opacity="0.15"/>
<line y1="-0.5" x2="5.53166" y2="-0.5" transform="matrix(-4.37114e-08 1 1 4.37114e-08 174.069 0.89502)" stroke="#9EA7AC" stroke-opacity="0.15"/>
<line y1="-0.5" x2="5.53166" y2="-0.5" transform="matrix(-4.37114e-08 1 1 4.37114e-08 187.313 0.89502)" stroke="#9EA7AC" stroke-opacity="0.15"/>
<line y1="-0.5" x2="3.60761" y2="-0.5" transform="matrix(-4.37114e-08 1 1 4.37114e-08 184.715 0.89502)" stroke="#9EA7AC" stroke-opacity="0.15"/>
<line y1="-0.5" x2="3.12659" y2="-0.5" transform="matrix(-4.37114e-08 1 1 4.37114e-08 182.12 0.89502)" stroke="#9EA7AC" stroke-opacity="0.15"/>
<line y1="-0.5" x2="3.12659" y2="-0.5" transform="matrix(-4.37114e-08 1 1 4.37114e-08 179.522 0.89502)" stroke="#9EA7AC" stroke-opacity="0.15"/>
<line y1="-0.5" x2="3.12659" y2="-0.5" transform="matrix(-4.37114e-08 1 1 4.37114e-08 176.926 0.89502)" stroke="#9EA7AC" stroke-opacity="0.15"/>
<line y1="-0.5" x2="5.53166" y2="-0.5" transform="matrix(-4.37114e-08 1 1 4.37114e-08 160.825 0.89502)" stroke="#9EA7AC" stroke-opacity="0.15"/>
<line y1="-0.5" x2="5.53166" y2="-0.5" transform="matrix(-4.37114e-08 1 1 4.37114e-08 174.069 0.89502)" stroke="#9EA7AC" stroke-opacity="0.15"/>
<line y1="-0.5" x2="3.60761" y2="-0.5" transform="matrix(-4.37114e-08 1 1 4.37114e-08 171.471 0.89502)" stroke="#9EA7AC" stroke-opacity="0.15"/>
<line y1="-0.5" x2="3.12659" y2="-0.5" transform="matrix(-4.37114e-08 1 1 4.37114e-08 168.875 0.89502)" stroke="#9EA7AC" stroke-opacity="0.15"/>
<line y1="-0.5" x2="3.12659" y2="-0.5" transform="matrix(-4.37114e-08 1 1 4.37114e-08 166.278 0.89502)" stroke="#9EA7AC" stroke-opacity="0.15"/>
<line y1="-0.5" x2="3.12659" y2="-0.5" transform="matrix(-4.37114e-08 1 1 4.37114e-08 163.682 0.89502)" stroke="#9EA7AC" stroke-opacity="0.15"/>
<line y1="-0.5" x2="5.53166" y2="-0.5" transform="matrix(-4.37114e-08 1 1 4.37114e-08 147.58 0.89502)" stroke="#9EA7AC" stroke-opacity="0.15"/>
<line y1="-0.5" x2="5.53166" y2="-0.5" transform="matrix(-4.37114e-08 1 1 4.37114e-08 160.824 0.89502)" stroke="#9EA7AC" stroke-opacity="0.15"/>
<line y1="-0.5" x2="3.60761" y2="-0.5" transform="matrix(-4.37114e-08 1 1 4.37114e-08 158.227 0.89502)" stroke="#9EA7AC" stroke-opacity="0.15"/>
<line y1="-0.5" x2="3.12659" y2="-0.5" transform="matrix(-4.37114e-08 1 1 4.37114e-08 155.631 0.89502)" stroke="#9EA7AC" stroke-opacity="0.15"/>
<line y1="-0.5" x2="3.12659" y2="-0.5" transform="matrix(-4.37114e-08 1 1 4.37114e-08 153.033 0.89502)" stroke="#9EA7AC" stroke-opacity="0.15"/>
<line y1="-0.5" x2="3.12659" y2="-0.5" transform="matrix(-4.37114e-08 1 1 4.37114e-08 150.438 0.89502)" stroke="#9EA7AC" stroke-opacity="0.15"/>
<line y1="-0.5" x2="5.53166" y2="-0.5" transform="matrix(-4.37114e-08 1 1 4.37114e-08 134.336 0.89502)" stroke="#9EA7AC" stroke-opacity="0.15"/>
<line y1="-0.5" x2="5.53166" y2="-0.5" transform="matrix(-4.37114e-08 1 1 4.37114e-08 147.58 0.89502)" stroke="#9EA7AC" stroke-opacity="0.15"/>
<line y1="-0.5" x2="3.60761" y2="-0.5" transform="matrix(-4.37114e-08 1 1 4.37114e-08 144.982 0.89502)" stroke="#9EA7AC" stroke-opacity="0.15"/>
<line y1="-0.5" x2="3.12659" y2="-0.5" transform="matrix(-4.37114e-08 1 1 4.37114e-08 142.387 0.89502)" stroke="#9EA7AC" stroke-opacity="0.15"/>
<line y1="-0.5" x2="3.12659" y2="-0.5" transform="matrix(-4.37114e-08 1 1 4.37114e-08 139.789 0.89502)" stroke="#9EA7AC" stroke-opacity="0.15"/>
<line y1="-0.5" x2="3.12659" y2="-0.5" transform="matrix(-4.37114e-08 1 1 4.37114e-08 137.193 0.89502)" stroke="#9EA7AC" stroke-opacity="0.15"/>
<line y1="-0.5" x2="5.53166" y2="-0.5" transform="matrix(-4.37114e-08 1 1 4.37114e-08 121.092 0.89502)" stroke="#9EA7AC" stroke-opacity="0.15"/>
<line y1="-0.5" x2="5.53166" y2="-0.5" transform="matrix(-4.37114e-08 1 1 4.37114e-08 134.336 0.89502)" stroke="#9EA7AC" stroke-opacity="0.15"/>
<line y1="-0.5" x2="3.60761" y2="-0.5" transform="matrix(-4.37114e-08 1 1 4.37114e-08 131.738 0.89502)" stroke="#9EA7AC" stroke-opacity="0.15"/>
<line y1="-0.5" x2="3.12659" y2="-0.5" transform="matrix(-4.37114e-08 1 1 4.37114e-08 129.143 0.89502)" stroke="#9EA7AC" stroke-opacity="0.15"/>
<line y1="-0.5" x2="3.12659" y2="-0.5" transform="matrix(-4.37114e-08 1 1 4.37114e-08 126.545 0.89502)" stroke="#9EA7AC" stroke-opacity="0.15"/>
<line y1="-0.5" x2="3.12659" y2="-0.5" transform="matrix(-4.37114e-08 1 1 4.37114e-08 123.949 0.89502)" stroke="#9EA7AC" stroke-opacity="0.15"/>
<line y1="-0.5" x2="5.53166" y2="-0.5" transform="matrix(-4.37114e-08 1 1 4.37114e-08 107.848 0.89502)" stroke="#9EA7AC" stroke-opacity="0.15"/>
<line y1="-0.5" x2="5.53166" y2="-0.5" transform="matrix(-4.37114e-08 1 1 4.37114e-08 121.092 0.89502)" stroke="#9EA7AC" stroke-opacity="0.15"/>
<line y1="-0.5" x2="3.60761" y2="-0.5" transform="matrix(-4.37114e-08 1 1 4.37114e-08 118.494 0.89502)" stroke="#9EA7AC" stroke-opacity="0.15"/>
<line y1="-0.5" x2="3.12659" y2="-0.5" transform="matrix(-4.37114e-08 1 1 4.37114e-08 115.898 0.89502)" stroke="#9EA7AC" stroke-opacity="0.15"/>
<line y1="-0.5" x2="3.12659" y2="-0.5" transform="matrix(-4.37114e-08 1 1 4.37114e-08 113.301 0.89502)" stroke="#9EA7AC" stroke-opacity="0.15"/>
<line y1="-0.5" x2="3.12659" y2="-0.5" transform="matrix(-4.37114e-08 1 1 4.37114e-08 110.705 0.89502)" stroke="#9EA7AC" stroke-opacity="0.15"/>
<line y1="-0.5" x2="5.53166" y2="-0.5" transform="matrix(-4.37114e-08 1 1 4.37114e-08 94.603 0.89502)" stroke="#9EA7AC" stroke-opacity="0.15"/>
<line y1="-0.5" x2="5.53166" y2="-0.5" transform="matrix(-4.37114e-08 1 1 4.37114e-08 107.847 0.89502)" stroke="#9EA7AC" stroke-opacity="0.15"/>
<line y1="-0.5" x2="3.60761" y2="-0.5" transform="matrix(-4.37114e-08 1 1 4.37114e-08 105.25 0.89502)" stroke="#9EA7AC" stroke-opacity="0.15"/>
<line y1="-0.5" x2="3.12659" y2="-0.5" transform="matrix(-4.37114e-08 1 1 4.37114e-08 102.654 0.89502)" stroke="#9EA7AC" stroke-opacity="0.15"/>
<line y1="-0.5" x2="3.12659" y2="-0.5" transform="matrix(-4.37114e-08 1 1 4.37114e-08 100.056 0.89502)" stroke="#9EA7AC" stroke-opacity="0.15"/>
<line y1="-0.5" x2="3.12659" y2="-0.5" transform="matrix(-4.37114e-08 1 1 4.37114e-08 97.4604 0.89502)" stroke="#9EA7AC" stroke-opacity="0.15"/>
<line y1="-0.5" x2="5.53166" y2="-0.5" transform="matrix(-4.37114e-08 1 1 4.37114e-08 81.3589 0.89502)" stroke="#9EA7AC" stroke-opacity="0.15"/>
<line y1="-0.5" x2="5.53166" y2="-0.5" transform="matrix(-4.37114e-08 1 1 4.37114e-08 94.603 0.89502)" stroke="#9EA7AC" stroke-opacity="0.15"/>
<line y1="-0.5" x2="3.60761" y2="-0.5" transform="matrix(-4.37114e-08 1 1 4.37114e-08 92.0054 0.89502)" stroke="#9EA7AC" stroke-opacity="0.15"/>
<line y1="-0.5" x2="3.12659" y2="-0.5" transform="matrix(-4.37114e-08 1 1 4.37114e-08 89.4097 0.89502)" stroke="#9EA7AC" stroke-opacity="0.15"/>
<line y1="-0.5" x2="3.12659" y2="-0.5" transform="matrix(-4.37114e-08 1 1 4.37114e-08 86.812 0.89502)" stroke="#9EA7AC" stroke-opacity="0.15"/>
<line y1="-0.5" x2="3.12659" y2="-0.5" transform="matrix(-4.37114e-08 1 1 4.37114e-08 84.2163 0.89502)" stroke="#9EA7AC" stroke-opacity="0.15"/>
<line y1="-0.5" x2="5.53166" y2="-0.5" transform="matrix(-4.37114e-08 1 1 4.37114e-08 68.1147 0.89502)" stroke="#9EA7AC" stroke-opacity="0.15"/>
<line y1="-0.5" x2="5.53166" y2="-0.5" transform="matrix(-4.37114e-08 1 1 4.37114e-08 81.3589 0.89502)" stroke="#9EA7AC" stroke-opacity="0.15"/>
<line y1="-0.5" x2="3.60761" y2="-0.5" transform="matrix(-4.37114e-08 1 1 4.37114e-08 78.7612 0.89502)" stroke="#9EA7AC" stroke-opacity="0.15"/>
<line y1="-0.5" x2="3.12659" y2="-0.5" transform="matrix(-4.37114e-08 1 1 4.37114e-08 76.1655 0.89502)" stroke="#9EA7AC" stroke-opacity="0.15"/>
<line y1="-0.5" x2="3.12659" y2="-0.5" transform="matrix(-4.37114e-08 1 1 4.37114e-08 73.5679 0.89502)" stroke="#9EA7AC" stroke-opacity="0.15"/>
<line y1="-0.5" x2="3.12659" y2="-0.5" transform="matrix(-4.37114e-08 1 1 4.37114e-08 70.9722 0.89502)" stroke="#9EA7AC" stroke-opacity="0.15"/>
<line y1="-0.5" x2="5.53166" y2="-0.5" transform="matrix(-4.37114e-08 1 1 4.37114e-08 54.8706 0.89502)" stroke="#9EA7AC" stroke-opacity="0.15"/>
<line y1="-0.5" x2="5.53166" y2="-0.5" transform="matrix(-4.37114e-08 1 1 4.37114e-08 68.1147 0.89502)" stroke="#9EA7AC" stroke-opacity="0.15"/>
<line y1="-0.5" x2="3.60761" y2="-0.5" transform="matrix(-4.37114e-08 1 1 4.37114e-08 65.5171 0.89502)" stroke="#9EA7AC" stroke-opacity="0.15"/>
<line y1="-0.5" x2="3.12659" y2="-0.5" transform="matrix(-4.37114e-08 1 1 4.37114e-08 62.9214 0.89502)" stroke="#9EA7AC" stroke-opacity="0.15"/>
<line y1="-0.5" x2="3.12659" y2="-0.5" transform="matrix(-4.37114e-08 1 1 4.37114e-08 60.3237 0.89502)" stroke="#9EA7AC" stroke-opacity="0.15"/>
<line y1="-0.5" x2="3.12659" y2="-0.5" transform="matrix(-4.37114e-08 1 1 4.37114e-08 57.728 0.89502)" stroke="#9EA7AC" stroke-opacity="0.15"/>
<line y1="-0.5" x2="5.53166" y2="-0.5" transform="matrix(-4.37114e-08 1 1 4.37114e-08 41.626 0.89502)" stroke="#9EA7AC" stroke-opacity="0.15"/>
<line y1="-0.5" x2="5.53166" y2="-0.5" transform="matrix(-4.37114e-08 1 1 4.37114e-08 54.8701 0.89502)" stroke="#9EA7AC" stroke-opacity="0.15"/>
<line y1="-0.5" x2="3.60761" y2="-0.5" transform="matrix(-4.37114e-08 1 1 4.37114e-08 52.2725 0.89502)" stroke="#9EA7AC" stroke-opacity="0.15"/>
<line y1="-0.5" x2="3.12659" y2="-0.5" transform="matrix(-4.37114e-08 1 1 4.37114e-08 49.6768 0.89502)" stroke="#9EA7AC" stroke-opacity="0.15"/>
<line y1="-0.5" x2="3.12659" y2="-0.5" transform="matrix(-4.37114e-08 1 1 4.37114e-08 47.0791 0.89502)" stroke="#9EA7AC" stroke-opacity="0.15"/>
<line y1="-0.5" x2="3.12659" y2="-0.5" transform="matrix(-4.37114e-08 1 1 4.37114e-08 44.4834 0.89502)" stroke="#9EA7AC" stroke-opacity="0.15"/>
<line y1="-0.5" x2="5.53166" y2="-0.5" transform="matrix(-4.37114e-08 1 1 4.37114e-08 28.3818 0.89502)" stroke="#9EA7AC" stroke-opacity="0.15"/>
<line y1="-0.5" x2="5.53166" y2="-0.5" transform="matrix(-4.37114e-08 1 1 4.37114e-08 41.626 0.89502)" stroke="#9EA7AC" stroke-opacity="0.15"/>
<line y1="-0.5" x2="3.60761" y2="-0.5" transform="matrix(-4.37114e-08 1 1 4.37114e-08 39.0283 0.89502)" stroke="#9EA7AC" stroke-opacity="0.15"/>
<line y1="-0.5" x2="3.12659" y2="-0.5" transform="matrix(-4.37114e-08 1 1 4.37114e-08 36.4326 0.89502)" stroke="#9EA7AC" stroke-opacity="0.15"/>
<line y1="-0.5" x2="3.12659" y2="-0.5" transform="matrix(-4.37114e-08 1 1 4.37114e-08 33.835 0.89502)" stroke="#9EA7AC" stroke-opacity="0.15"/>
<line y1="-0.5" x2="3.12659" y2="-0.5" transform="matrix(-4.37114e-08 1 1 4.37114e-08 31.2393 0.89502)" stroke="#9EA7AC" stroke-opacity="0.15"/>
<line y1="-0.5" x2="5.53166" y2="-0.5" transform="matrix(-4.37114e-08 1 1 4.37114e-08 15.1377 0.89502)" stroke="#9EA7AC" stroke-opacity="0.15"/>
<line y1="-0.5" x2="5.53166" y2="-0.5" transform="matrix(-4.37114e-08 1 1 4.37114e-08 28.3818 0.89502)" stroke="#9EA7AC" stroke-opacity="0.15"/>
<line y1="-0.5" x2="3.60761" y2="-0.5" transform="matrix(-4.37114e-08 1 1 4.37114e-08 25.7842 0.89502)" stroke="#9EA7AC" stroke-opacity="0.15"/>
<line y1="-0.5" x2="3.12659" y2="-0.5" transform="matrix(-4.37114e-08 1 1 4.37114e-08 23.1885 0.89502)" stroke="#9EA7AC" stroke-opacity="0.15"/>
<line y1="-0.5" x2="3.12659" y2="-0.5" transform="matrix(-4.37114e-08 1 1 4.37114e-08 20.5908 0.89502)" stroke="#9EA7AC" stroke-opacity="0.15"/>
<line y1="-0.5" x2="3.12659" y2="-0.5" transform="matrix(-4.37114e-08 1 1 4.37114e-08 17.9951 0.89502)" stroke="#9EA7AC" stroke-opacity="0.15"/>
<line y1="-0.5" x2="5.53166" y2="-0.5" transform="matrix(-4.37114e-08 1 1 4.37114e-08 1.89355 0.89502)" stroke="#9EA7AC" stroke-opacity="0.15"/>
<line y1="-0.5" x2="5.53166" y2="-0.5" transform="matrix(-4.37114e-08 1 1 4.37114e-08 15.1377 0.89502)" stroke="#9EA7AC" stroke-opacity="0.15"/>
<line y1="-0.5" x2="3.60761" y2="-0.5" transform="matrix(-4.37114e-08 1 1 4.37114e-08 12.54 0.89502)" stroke="#9EA7AC" stroke-opacity="0.15"/>
<line y1="-0.5" x2="3.12659" y2="-0.5" transform="matrix(-4.37114e-08 1 1 4.37114e-08 9.94434 0.89502)" stroke="#9EA7AC" stroke-opacity="0.15"/>
<line y1="-0.5" x2="3.12659" y2="-0.5" transform="matrix(-4.37114e-08 1 1 4.37114e-08 7.34668 0.89502)" stroke="#9EA7AC" stroke-opacity="0.15"/>
<line y1="-0.5" x2="3.12659" y2="-0.5" transform="matrix(-4.37114e-08 1 1 4.37114e-08 4.75098 0.89502)" stroke="#9EA7AC" stroke-opacity="0.15"/>
</svg>
