<svg width="39" height="39" viewBox="0 0 39 39" fill="none" xmlns="http://www.w3.org/2000/svg">
<g filter="url(#filter0_d_1204_6706)">
<path fill-rule="evenodd" clip-rule="evenodd" d="M19.5 21.501C23.0899 21.501 26 18.5908 26 15.001C26 11.4111 23.0899 8.50098 19.5 8.50098C15.9101 8.50098 13 11.4111 13 15.001C13 18.5908 15.9101 21.501 19.5 21.501Z" fill="#FDB426"/>
<path d="M25.5 15.001C25.5 18.3147 22.8137 21.001 19.5 21.001C16.1863 21.001 13.5 18.3147 13.5 15.001C13.5 11.6873 16.1863 9.00098 19.5 9.00098C22.8137 9.00098 25.5 11.6873 25.5 15.001Z" stroke="#FDB426"/>
</g>
<g filter="url(#filter1_d_1204_6706)">
<path d="M30.001 15.001C30.001 20.8005 25.2995 25.502 19.5 25.502C13.7005 25.502 8.99902 20.8005 8.99902 15.001C8.99902 9.20145 13.7005 4.5 19.5 4.5C25.2995 4.5 30.001 9.20145 30.001 15.001Z" stroke="#FDB426"/>
</g>
<defs>
<filter id="filter0_d_1204_6706" x="5" y="4.50098" width="29" height="29" filterUnits="userSpaceOnUse" color-interpolation-filters="sRGB">
<feFlood flood-opacity="0" result="BackgroundImageFix"/>
<feColorMatrix in="SourceAlpha" type="matrix" values="0 0 0 0 0 0 0 0 0 0 0 0 0 0 0 0 0 0 127 0" result="hardAlpha"/>
<feOffset dy="4"/>
<feGaussianBlur stdDeviation="4"/>
<feColorMatrix type="matrix" values="0 0 0 0 0.172549 0 0 0 0 0.152941 0 0 0 0 0.219608 0 0 0 0.08 0"/>
<feBlend mode="normal" in2="BackgroundImageFix" result="effect1_dropShadow_1204_6706"/>
<feBlend mode="normal" in="SourceGraphic" in2="effect1_dropShadow_1204_6706" result="shape"/>
</filter>
<filter id="filter1_d_1204_6706" x="0.499023" y="0" width="38.002" height="38.002" filterUnits="userSpaceOnUse" color-interpolation-filters="sRGB">
<feFlood flood-opacity="0" result="BackgroundImageFix"/>
<feColorMatrix in="SourceAlpha" type="matrix" values="0 0 0 0 0 0 0 0 0 0 0 0 0 0 0 0 0 0 127 0" result="hardAlpha"/>
<feOffset dy="4"/>
<feGaussianBlur stdDeviation="4"/>
<feColorMatrix type="matrix" values="0 0 0 0 0.172549 0 0 0 0 0.152941 0 0 0 0 0.219608 0 0 0 0.08 0"/>
<feBlend mode="normal" in2="BackgroundImageFix" result="effect1_dropShadow_1204_6706"/>
<feBlend mode="normal" in="SourceGraphic" in2="effect1_dropShadow_1204_6706" result="shape"/>
</filter>
</defs>
</svg>
